<?xml version="1.0" encoding="UTF-8" standalone="no"?>
<svg
   version="1.1"
   viewBox="0 0 width height"
   id="svg32"
   width="500"
   height="500"
   xmlns="http://www.w3.org/2000/svg"
   xmlns:svg="http://www.w3.org/2000/svg">
  <defs
     id="defs32" />
  <g
     id="g32"
     transform="rotate(-15,250,250)"
     style="display:inline">
    <rect
       fill="#000000"
       x="248.02"
       y="51.25"
       width="47.119999"
       height="7"
       rx="3.22"
       id="rect20"
       style="fill:#c4c4c4;fill-opacity:1" />
    <path
       fill="#000000"
       d="m 416.29,81.57 q -6.3,-2.58 -12.44,-5.36 -7.43,-3.36 -12.44,-3.61 -10.72,-0.54 -18.87,8.37 c -2.44,2.68 -3.06,5.88 -7.62,5.76 q -7.97,-0.2 -15.62,-0.14 a 1.2,1.2 0 0 0 -1.19,1.14 l -0.25,4.61 q -0.06,1.13 1.07,1.16 6.63,0.2 9.85,1.42 4.72,1.8 3.23,6.53 -1.41,4.5 -6.47,3.67 c -21.2,-3.44 -45.91,3.16 -62.01,17.58 -6.42,5.75 -13.7,-3.17 -6.69,-8.74 q 3.27,-2.59 6.32,-5 1.04,-0.82 0.28,-1.91 l -2.06,-2.91 q -0.55,-0.79 -1.36,-0.26 -8.03,5.22 -15.23,12.55 c -5.57,5.67 -13.72,-2.05 -7.82,-7.77 q 9.23,-8.94 18.98,-15.05 a 1.64,1.62 -18.6 0 0 0.76,-1.51 q -1.59,-17.97 11.57,-28.61 c 5.71,-4.63 13.45,-7.06 20.98,-6.5 q 17.98,1.34 26.44,18.28 a 0.92,0.9 -13.3 0 0 0.81,0.49 l 15.78,-0.04 q 0.62,0 1,-0.49 7.39,-9.64 19.27,-12.57 c 8.92,-2.2 16.81,-0.41 25.57,3.53 q 8.33,3.75 17.46,7.47 c 3.97,1.62 5.92,4.78 3.62,8.92 q -4.93,8.87 -9.45,17.37 a 0.98,0.97 37.2 0 0 0.16,1.13 q 10.12,10.6 15.71,24.33 a 1.53,1.52 -11.3 0 0 1.43,0.95 q 10.13,-0.05 20.55,-0.69 c 4.42,-0.27 6.32,2.41 6.52,6.44 q 0.5,10.56 0.44,16.77 -0.13,13.16 -8.9,24.06 -9.57,11.91 -26.05,15.12 -0.47,0.09 -0.72,0.48 -6.1,9.43 -14.16,17.64 a 1.92,1.91 -30.4 0 0 -0.48,1.83 l 5.08,19.21 a 0.62,0.62 0 0 1 -0.6,0.78 h -9.94 q -0.52,0 -0.66,-0.51 -2.75,-10.26 -5.51,-20.96 c -0.47,-1.82 0.14,-3.58 1.44,-4.87 q 9.74,-9.64 16.94,-21.49 c 1.01,-1.67 2.66,-2.59 4.57,-2.8 q 13.83,-1.48 21.59,-11.23 c 7.07,-8.89 7.17,-17.89 6.2,-28.55 a 0.87,0.87 0 0 0 -0.91,-0.79 q -9.13,0.45 -19.8,0.91 c -3.18,0.13 -5.1,-1.88 -5.98,-4.73 q -4.81,-15.66 -18.13,-27.69 c -2.15,-1.94 -1.45,-5.12 -0.17,-7.38 q 4.28,-7.54 8.31,-15.25 a 0.79,0.78 25.1 0 0 -0.4,-1.09 z m -84.87,-7.9 c -8.63,-8.42 -22.48,-7.86 -29.66,1.71 q -8.28,11.04 -1.05,23.53 1.05,1.82 2.8,3.04 a 1.58,1.56 -38.9 0 0 1.54,0.15 q 15.28,-6.73 30.67,-8.36 a 1.28,1.28 0 0 0 1.13,-1.05 Q 339,81.07 331.42,73.67 Z"
       id="path21"
       style="fill:#219ebc;fill-opacity:1" />
    <rect
       fill="#000000"
       x="209.09"
       y="69.5"
       width="73.779999"
       height="7"
       rx="3.1600001"
       id="rect22"
       style="fill:#c4c4c4;fill-opacity:1" />
    <rect
       fill="#000000"
       x="230.92"
       y="87.010002"
       width="43.900002"
       height="7"
       rx="3.1700001"
       id="rect23"
       style="fill:#c4c4c4;fill-opacity:1" />
    <circle
       fill="#000000"
       cx="257.07999"
       cy="130.17999"
       id="circle23"
       style="fill:#219ebc;fill-opacity:1"
       r="5.4299998" />
    <circle
       fill="#000000"
       cx="404.25"
       cy="131.49001"
       r="5.4299998"
       id="circle24"
       style="fill:#219ebc;fill-opacity:1" />
    <path
       fill="#000000"
       d="m 223.61,174.7 a 0.57,0.56 46.2 0 0 -0.02,1.03 q 8.14,3.9 17.54,1.68 0.91,-0.22 0.78,-1.14 -1.9,-13.87 1.43,-27.14 c 1.78,-7.07 12.15,-4.7 10.6,2.15 q -6.46,28.42 10.63,50.21 c 7.93,10.12 20.13,18.11 32.41,22.61 q 2.55,0.94 3.74,2.89 0.57,0.95 -0.53,0.96 -9.58,0.1 -19.77,0.02 -1.02,-0.01 -1.88,-0.5 -19.69,-11.28 -29.89,-30.61 -2.21,-4.18 -3.46,-8.48 a 0.82,0.82 0 0 0 -0.99,-0.57 q -19.22,4.9 -34.12,-8.35 a 2.28,2.28 0 0 0 -2.15,-0.49 q -7.01,2.03 -14.7,0.99 -3.8,-0.51 -4.45,-5.12 c -0.57,-4.04 2.73,-6.23 6.3,-5.68 q 3.38,0.52 6.86,0.01 a 0.56,0.55 -17.1 0 0 0.42,-0.79 c -5.09,-10.6 -1.96,-22.82 9.77,-26.47 6.37,-1.98 13.76,-0.09 18.12,5.06 8.02,9.47 4.65,22.91 -6.64,27.73 z m -10.66,-9.23 q 0.42,0.78 1.27,0.56 c 2.23,-0.58 5.08,-0.94 6.93,-2.38 5.47,-4.27 1.4,-12.97 -5.41,-11.44 q -2.71,0.61 -4.12,3.13 c -1.8,3.21 -0.25,7.15 1.33,10.13 z"
       id="path24"
       style="fill:#219ebc;fill-opacity:1" />
    <path
       fill="#000000"
       d="m 208.44,373.51 c 1.06,4.57333 2.22,9.76333 3.48,15.57 0.94,4.32 3.99,7.41 8.45,7.41 60.04667,0.02 119.11333,0.0167 177.2,-0.01 4.28,0 7.68,1.95 8.34,6.51 0.57,4.01 -2.29,8.03 -6.63,8.03 -62.41333,-0.0467 -125.71667,-0.0367 -189.91,0.03 -2.23333,0 -4.00667,-0.39667 -5.32,-1.19 -1.90667,-1.16 -3.12333,-2.90667 -3.65,-5.24 -14.7,-65.44667 -29.3,-130.55667 -43.8,-195.33 -0.08,-0.34 -0.29667,-0.53 -0.65,-0.57 -19.2,-2.11333 -38.6,-4.17333 -58.2,-6.18 -1.933333,-0.2 -3.6,-0.68 -5,-1.44 -5.76,-3.11 -4.55,-13.59 2.7,-13.16 2.45,0.15 4.89,-0.08 7.26,0.19 17.21333,1.91333 35.88667,3.93333 56.02,6.06 5.97,0.63 10.15,3.13 11.57,9.34 2.16667,9.47333 4.30667,19.00333 6.42,28.59 0.0867,0.40667 0.34,0.61333 0.76,0.62 47.13922,-0.66084 94.31719,0.79984 141.44,0.12 17.3,-0.51 34.64,-0.48 51.87,-0.37 2.45,0.01 4.96052,-0.10052 7.38744,-0.0187 8.36743,-0.21542 16.52618,-0.14202 24.90256,-0.16487 5.96,0 12.06,-0.42641 17.74,0.41359 5.29,0.78 10.47,4.82 10.26,10.57 -0.09,2.26 0.06,4.4 -0.44,6.66 -8.12667,36.60667 -16.47667,74.13667 -25.05,112.59 -1.61,7.21 -7.69,10.24 -14.55,10.23 -61.48667,-0.0333 -122.15667,-0.0333 -182.01,0 -0.50667,0 -0.70333,0.24667 -0.59,0.74 z M 379.5,358.02 c 6.8,0.01 12.79,-3.21 14.37,-10.35 6.44,-29.07333 13.13,-59.15667 20.07,-90.25 0.69,-3.08 -0.66,-6.57 -3.33,-8.31 -1.43333,-0.93333 -3.46333,-1.32333 -6.09,-1.17 -4.98,0.3 -9.63,-0.4 -14.65,-0.42 -15.13333,-0.04 -30.09,-0.0467 -44.87,-0.02 -4.48,0 -8.88,0.82 -13.44,0.44 -6.71,-0.56 -13.14,-0.45 -19.7,-0.44 -4.6,0 -9.26531,0.59937 -13.89531,0.21937 -3.56667,-0.28666 -6.94469,-0.2027 -10.36469,-0.20937 -36.49333,-0.0133 -72.11333,-0.0167 -106.86,-0.01 -0.38,0 -0.53,0.18333 -0.45,0.55 l 24.59,109.43 c 0.0698,0.30875 0.34346,0.52849 0.66,0.53 57.12667,-0.0267 115.11333,-0.0233 173.96,0.01 z"
       id="path26"
       style="fill:#0f7293;fill-opacity:1" />
    <path
       fill="#000000"
       d="m 354.95,226.84 c 7.23,-1.61 13.94,-3.83 20.61,-6.85 7.7,-3.49 8.32,2.41 10.63,7.41 q 0.27,0.59 -0.38,0.6 -14.59,0.02 -30.13,-0.04 -1.95,-0.01 -3.97,-0.45 -0.7,-0.15 -0.01,-0.34 c 1.06,-0.28 2.16,-0.08 3.25,-0.33 z"
       id="path27"
       style="fill:#219ebc;fill-opacity:1" />
    <rect
       fill="#000000"
       x="41.290001"
       y="259.26001"
       width="114.92"
       height="13.98"
       rx="6.8899999"
       id="rect28"
       style="fill:#c4c4c4;fill-opacity:1" />
    <rect
       fill="#000000"
       x="4.6700001"
       y="304.51001"
       width="161.52"
       height="13.98"
       rx="6.9200001"
       id="rect29"
       style="fill:#c4c4c4;fill-opacity:1" />
    <rect
       fill="#000000"
       x="68.629997"
       y="356.26001"
       width="108.9"
       height="13.98"
       rx="6.8800001"
       id="rect30"
       style="fill:#c4c4c4;fill-opacity:1" />
    <path
       fill="#000000"
       d="m 266.13,448.68 a 29.67,29.67 0 0 1 -29.67,29.67 29.67,29.67 0 0 1 -29.67,-29.67 29.67,29.67 0 0 1 29.67,-29.67 29.67,29.67 0 0 1 29.67,29.67 z m -12.46,0.11 a 17.21,17.21 0 0 0 -17.21,-17.21 17.21,17.21 0 0 0 -17.21,17.21 17.21,17.21 0 0 0 17.21,17.21 17.21,17.21 0 0 0 17.21,-17.21 z"
       id="path30"
       style="fill:#0f7293;fill-opacity:1" />
    <path
       fill="#000000"
       d="m 379.1141,477.2723 a 29.69,29.64 74.3 0 1 -36.5683,-20.5617 29.69,29.64 74.3 0 1 20.5001,-36.6029 29.69,29.64 74.3 0 1 36.5683,20.5617 29.69,29.64 74.3 0 1 -20.5001,36.6029 z M 388.28,448.79 a 17.23,17.23 0 0 0 -17.23,-17.23 17.23,17.23 0 0 0 -17.23,17.23 17.23,17.23 0 0 0 17.23,17.23 17.23,17.23 0 0 0 17.23,-17.23 z"
       id="path31"
       style="fill:#0f7293;fill-opacity:1" />
  </g>
</svg>
